<?xml version="1.0" encoding="UTF-8"?>
<svg xmlns="http://www.w3.org/2000/svg"
     width="24" height="32" viewBox="0 0 24 32">
  <!-- Phone body with rounded corners (BLACK) -->
  <path d="M 7,3 L 17,3 A 3,3 0 0 1 20,6 L 20,26 A 3,3 0 0 1 17,29 L 7,29 A 3,3 0 0 1 4,26 L 4,6 A 3,3 0 0 1 7,3 Z"
        stroke="#000000" stroke-width="2.5" fill="none" stroke-linejoin="round"/>
  <!-- Inner screen rectangle (BLACK) -->
  <path d="M 7,9 L 17,9 A 1,1 0 0 1 18,10 L 18,22 A 1,1 0 0 1 17,23 L 7,23 A 1,1 0 0 1 6,22 L 6,10 A 1,1 0 0 1 7,9 Z"
        stroke="#000000" stroke-width="2" fill="none" stroke-linejoin="round"/>
  <!-- Diagonal slash (RED) -->
  <path d="M 3,4 L 21,28" stroke="#FF0000" stroke-width="3.5" fill="none" stroke-linecap="round"/>
</svg>
